<svg xmlns="http://www.w3.org/2000/svg" xml:space="preserve" style="fill-rule:evenodd;clip-rule:evenodd;stroke-linejoin:round;stroke-miterlimit:2" viewBox="0 0 35 35"><path d="M5 18a3 3 0 0 0-3 3v6a3 3 0 0 0 3 3h6a3 3 0 1 0 0-6H8v-3a3 3 0 0 0-3-3Zm7 9a1 1 0 0 1-1 1H5a1 1 0 0 1-1-1v-6a1 1 0 0 1 1-1c.6 0 1 .4 1 1v4c0 .6.4 1 1 1h4c.6 0 1 .4 1 1ZM18 27a3 3 0 0 0 3 3h6a3 3 0 0 0 3-3v-6a3 3 0 1 0-6 0v3h-3a3 3 0 0 0-3 3Zm2 0c0-.6.4-1 1-1h4c.6 0 1-.4 1-1v-4a1 1 0 0 1 2 0v6a1 1 0 0 1-1 1h-6a1 1 0 0 1-1-1ZM5 14a3 3 0 0 0 3-3V8h3a3 3 0 1 0 0-6H5a3 3 0 0 0-3 3v6a3 3 0 0 0 3 3Zm7-9c0 .6-.4 1-1 1H7a1 1 0 0 0-1 1v4a1 1 0 0 1-2 0V5a1 1 0 0 1 1-1h6a1 1 0 0 1 1 1ZM18 5a3 3 0 0 1 3-3h6a3 3 0 0 1 3 3v6a3 3 0 0 1-3 3m0 0a3 3 0 0 1-3-3V8h-3a3 3 0 0 1-3-3m2 0c0 .6.4 1 1 1h4c.6 0 1 .4 1 1v4c0 .6.4 1 1 1m0 0a1 1 0 0 0 1-1V5a1 1 0 0 0-1-1h-6a1 1 0 0 0-1 1"/></svg>