<svg xmlns="http://www.w3.org/2000/svg" xml:space="preserve" style="fill-rule:evenodd;clip-rule:evenodd;stroke-linejoin:round;stroke-miterlimit:2" viewBox="0 0 34 34"><path d="M11.7 16 3 24.8A3 3 0 1 0 7 29l8.9-8.8 8.8 8.8a3 3 0 0 0 4.2-4.2L20.2 16 29 7A3 3 0 0 0 24.8 3L16 11.7 7 3A3 3 0 1 0 3 7l8.8 8.9Zm2.1.7c.4-.4.4-1 0-1.4L4.3 5.7a1 1 0 1 1 1.4-1.4l9.6 9.5c.3.4 1 .4 1.4 0l9.5-9.5a1 1 0 1 1 1.4 1.4l-9.5 9.6a1 1 0 0 0 0 1.4l9.5 9.5a1 1 0 1 1-1.4 1.4l-9.5-9.5a1 1 0 0 0-1.4 0l-9.6 9.5a1 1 0 1 1-1.4-1.4l9.5-9.5Z"/></svg>