<svg xmlns="http://www.w3.org/2000/svg" xml:space="preserve" fill="#000" style="fill-rule:evenodd;clip-rule:evenodd;stroke-linejoin:round;stroke-miterlimit:2" viewBox="0 0 35 35"><path d="M4 7H3a1 1 0 0 0 0 2h1v2H3a1 1 0 0 0 0 2h1v2H3a1 1 0 0 0 0 2h1v2H3a1 1 0 0 0 0 2h1v2H3a1 1 0 0 0 0 2h1v4c0 .6.4 1 1 1h22a3 3 0 0 0 3-3V5a3 3 0 0 0-3-3H5a1 1 0 0 0-1 1v4Zm8-3h15a1 1 0 0 1 1 1v22a1 1 0 0 1-1 1H12V4ZM6 4v3h1a1 1 0 0 1 0 2H6v2h1a1 1 0 0 1 0 2H6v2h1a1 1 0 0 1 0 2H6v2h1a1 1 0 0 1 0 2H6v2h1a1 1 0 0 1 0 2H6v3h4V4H6Z"/><path d="M26 17.5a3 3 0 0 0-3-3h-6a3 3 0 0 0-3 3v7c0 .6.4 1 1 1h10c.6 0 1-.4 1-1v-7Zm-2 0v6h-8v-6a1 1 0 0 1 1-1h6a1 1 0 0 1 1 1ZM20 6.5a3 3 0 1 0 0 6 3 3 0 0 0 0-6Zm0 2a1 1 0 1 1 0 2 1 1 0 0 1 0-2Z"/></svg>